<svg width="617" height="385" viewBox="0 0 617 385" fill="none" xmlns="http://www.w3.org/2000/svg">
<g filter="url(#filter0_d_4_3217)">
<path fill-rule="evenodd" clip-rule="evenodd" d="M22 323.077C39.0101 307.016 49.6414 294.805 61.0561 283.902C72.6946 272.788 85.1413 263.031 111.8 252.864C138.46 242.696 179.319 232.13 226.407 228.467C273.496 224.803 326.814 228.056 371.739 232.666C416.664 237.276 453.196 243.232 482.156 252.851C511.115 262.471 532.49 275.753 551.713 292.824C570.489 309.508 587.188 329.805 602.83 345.767C596.054 352.657 588.083 353.156 577.763 350.651C565.391 347.648 549.649 340.322 530.624 334.889C511.6 329.457 489.28 325.93 472.208 328.559C455.136 331.188 443.311 339.973 430.541 346.726C417.771 353.48 404.043 358.215 388.326 356.956C372.61 355.698 354.903 348.458 340.653 348.234C326.416 348.01 315.636 354.813 302.057 362.127C288.479 369.441 272.103 377.279 260.962 378.824C249.821 380.381 243.915 375.646 233.532 367.934C223.149 360.233 208.303 349.542 196.714 346.739C185.125 343.935 176.807 348.994 166.312 356.109C155.805 363.224 143.11 372.394 130.937 375.198C118.764 378.001 107.1 374.463 98.4709 368.033C89.8415 361.604 84.2336 352.296 77.9294 343.524C71.6252 334.765 64.6372 326.553 57.0398 322.778C49.4425 319.015 41.2234 319.688 32.7681 321.133C29.187 321.793 25.5562 322.541 22 323.077Z" fill="#E7632B"/>
<path fill-rule="evenodd" clip-rule="evenodd" d="M58.7538 273.062C67.2091 264.664 76.684 256.527 89.939 248.665C103.206 240.802 120.254 233.214 145.955 227.121C171.67 221.028 206.038 216.418 238.641 214.175C271.256 211.945 302.105 212.069 337.22 215.732C372.334 219.396 411.713 226.573 442.625 233.625C473.549 240.678 496.006 247.581 514.271 256.39C532.537 265.199 546.613 275.903 557.841 285.123C569.069 294.344 577.462 302.057 582.399 309.308C587.335 316.56 588.827 323.339 585.445 328.41C582.063 333.494 573.807 336.883 562.032 336.808C550.256 336.746 534.975 333.22 518.735 329.631C502.496 326.042 485.312 322.379 470.092 322.379C454.873 322.379 441.605 326.042 430.178 332.073C418.739 338.104 409.14 346.502 397.165 347.86C385.191 349.218 370.842 343.524 359.005 338.042C347.167 332.559 337.829 327.264 324.835 331.737C311.841 336.21 295.204 350.439 281.663 358.975C268.135 367.51 257.715 370.363 247.22 366.7C236.738 363.037 226.181 352.882 213.523 346.103C200.878 339.325 186.118 335.936 172.789 338.789C159.459 341.63 147.547 350.714 136.182 355.523C124.817 360.333 113.987 360.869 105.196 356.47C96.4048 352.072 89.6405 342.714 83.4731 334.042C77.3182 325.37 71.7725 317.37 66.09 314.529C60.4075 311.688 54.5883 313.993 49.4405 312.224C44.3051 310.467 39.8288 304.636 41.3209 297.384C42.8503 290.132 50.286 281.46 58.7538 273.062Z" fill="#F6DAAA"/>
<path fill-rule="evenodd" clip-rule="evenodd" d="M61.514 270.37C69.2854 262.919 78.1013 255.692 89.9388 248.677C103.206 240.815 120.254 233.227 145.955 227.134C171.669 221.04 206.038 216.43 238.64 214.187C271.256 211.957 302.105 212.082 337.219 215.745C372.334 219.408 411.713 226.585 442.625 233.638C473.549 240.69 496.005 247.593 514.271 256.402C532.537 265.212 546.613 275.915 557.841 285.136L559.221 286.282C559.259 286.531 559.296 286.78 559.308 287.03C560.34 298.705 543.218 300.474 521.234 298.119C499.251 295.752 472.38 289.248 453.716 288.512C435.052 287.777 424.57 292.799 415.046 297.97C405.521 303.141 396.966 308.461 386.633 307.352C376.3 306.243 364.202 298.705 351.581 296.923C338.96 295.141 325.842 299.091 315.808 305.446C305.773 311.8 298.822 320.547 290.927 328.996C283.031 337.431 274.178 345.568 266.133 347.997C258.088 350.439 250.863 347.187 242.221 340.982C233.592 334.777 223.558 325.606 211.248 323.102C198.938 320.597 184.352 324.734 170.699 329.768C157.047 334.789 144.326 340.696 133.757 341.73C123.188 342.764 114.782 338.914 108.901 328.036C103.02 317.158 99.6873 299.241 94.7384 291.989C89.7896 284.749 83.2491 288.176 76.945 290.568C70.6408 292.948 64.5977 294.281 61.7876 290.07C59.425 286.419 59.4126 278.731 61.514 270.37Z" fill="#F9F9C7"/>
<path fill-rule="evenodd" clip-rule="evenodd" d="M468.403 249.774C471.102 250.77 476.523 252.403 482.728 254.371C488.932 256.34 495.945 258.658 500.521 260.327C505.109 261.997 507.273 263.019 508.964 264.526C510.667 266.034 511.898 268.015 515.044 269.772C518.19 271.542 523.251 273.087 527.615 273.996C531.992 274.906 535.673 275.155 537.389 274.657C539.105 274.158 538.844 272.9 535.412 270.757C531.98 268.613 525.377 265.586 520.54 263.791C515.703 261.997 512.644 261.449 510.556 261.137C508.467 260.826 507.36 260.751 503.045 259.405C498.73 258.06 491.195 255.431 484.63 253.25C478.065 251.069 472.457 249.337 469.46 248.528C466.464 247.73 466.078 247.867 465.879 247.929C465.68 248.004 465.68 248.004 465.68 248.191C465.705 248.378 465.705 248.764 468.403 249.774Z" fill="#F6DAAA"/>
<path fill-rule="evenodd" clip-rule="evenodd" d="M305.265 249.624C321.343 251.817 352.081 256.128 373.977 258.321C395.874 260.514 408.943 260.589 415.508 258.147C422.073 255.705 422.148 250.758 414.886 247.207C407.624 243.656 393.014 241.5 379.697 239.643C366.38 237.787 354.331 236.229 341.511 235.17C328.679 234.124 315.064 233.575 306.198 233.625C297.345 233.675 293.241 234.323 290.73 236.703C288.218 239.083 287.298 243.195 287.534 245.288C287.783 247.369 289.188 247.431 305.265 249.624Z" fill="#F6DAAA"/>
<path fill-rule="evenodd" clip-rule="evenodd" d="M108.854 238.921C118.851 234.647 130.8 230.635 145.622 227.121C170.279 221.277 202.919 216.791 234.328 214.461C239.849 215.707 244.039 217.041 247.26 218.972C252.42 222.075 255.081 226.735 252.668 231.532C250.256 236.329 242.783 241.276 231.282 244.565C219.767 247.855 204.225 249.487 187.115 250.409C170.005 251.331 151.341 251.555 136.943 249.674C122.979 247.855 113.044 244.042 108.854 238.921Z" fill="#F6DAAA"/>
<path fill-rule="evenodd" clip-rule="evenodd" d="M191.952 289.933C197.435 291.403 207.544 292.001 215.154 291.627C222.752 291.254 227.85 289.933 230.722 288.562C233.594 287.192 234.266 285.796 233.42 284.201C232.575 282.606 230.212 280.837 228.359 279.803C226.519 278.769 225.189 278.47 224.928 278.108C224.666 277.734 225.475 277.298 230.535 277.149C235.596 276.999 244.885 277.149 251.189 276.513C257.493 275.878 260.813 274.47 262.504 272.439C264.207 270.408 264.282 267.754 261.696 266.084C259.109 264.414 253.875 263.717 246.327 262.695C238.792 261.673 228.956 260.34 219.606 260.39C210.268 260.44 201.414 261.885 195.036 263.48C188.657 265.075 184.74 266.844 183.422 270.246C182.116 273.647 183.409 278.706 184.491 282.407C185.598 286.108 186.456 288.463 191.952 289.933Z" fill="#F6DAAA"/>
<path fill-rule="evenodd" clip-rule="evenodd" d="M114.472 243.257C121 245.362 133.521 248.266 147.348 247.829C161.187 247.393 176.345 243.593 189.736 238.983C203.128 234.372 214.767 228.952 220.561 225.638C226.343 222.323 226.281 221.102 223.844 216.492C221.407 211.882 216.607 203.895 211.633 197.528C206.66 191.161 201.524 186.413 194.549 182.688C187.585 178.962 178.782 176.246 170.501 175.336C162.207 174.427 154.436 175.299 146.08 179.161C137.724 183.024 128.796 189.865 122.741 196.705C116.685 203.546 113.502 210.387 111.338 217.377C109.175 224.354 108.018 231.469 107.72 235.668C107.409 239.867 107.944 241.163 114.472 243.257Z" fill="#F62F5E"/>
<path fill-rule="evenodd" clip-rule="evenodd" d="M220.337 210.325C217.875 206.25 214.791 201.565 211.633 197.516C206.659 191.148 201.524 186.401 194.548 182.676C187.585 178.95 178.782 176.234 170.501 175.324C162.207 174.414 154.435 175.287 146.08 179.149C137.724 183.012 128.796 189.853 122.74 196.693C116.685 203.534 113.502 210.375 111.338 217.365C109.933 221.9 108.951 226.486 108.354 230.298C111.749 231.731 115.566 233.002 119.744 234.036C130.922 236.815 144.724 237.887 158.713 235.581C172.701 233.276 186.877 227.582 198.639 222.237C207.343 218.287 214.729 214.499 220.337 210.325Z" fill="#FCA838"/>
<path fill-rule="evenodd" clip-rule="evenodd" d="M214.282 201.079C213.411 199.858 212.529 198.662 211.633 197.516C206.66 191.148 201.524 186.401 194.549 182.676C187.585 178.95 178.782 176.234 170.501 175.324C162.207 174.414 154.436 175.287 146.08 179.149C137.724 183.012 128.796 189.853 122.741 196.693C116.959 203.235 113.8 209.764 111.637 216.418C112.52 216.991 113.912 217.614 116.275 218.436C121.621 220.305 131.905 223.233 144.787 223.383C157.681 223.532 173.162 220.891 185.074 217.165C196.986 213.44 205.304 208.63 211.123 203.883C212.28 202.948 213.337 202.014 214.282 201.079Z" fill="#F62F5E"/>
<path fill-rule="evenodd" clip-rule="evenodd" d="M200.43 186.376C198.602 185.043 196.662 183.822 194.549 182.688C187.585 178.962 178.782 176.246 170.501 175.336C162.207 174.427 154.436 175.299 146.08 179.162C137.724 183.024 128.796 189.865 122.741 196.706C122.529 196.942 122.33 197.179 122.131 197.416C124.457 199.135 127.478 200.705 131.544 201.727C139.092 203.621 150.183 203.621 160.404 202.512C170.625 201.391 179.951 199.16 187.2 195.771C193.255 192.918 197.856 189.255 200.43 186.376Z" fill="#FCA838"/>
<path fill-rule="evenodd" clip-rule="evenodd" d="M179.976 177.093C176.83 176.283 173.622 175.673 170.501 175.336C162.207 174.427 154.436 175.299 146.08 179.162C142.001 181.043 137.786 183.647 133.832 186.6C134.242 186.775 134.69 186.937 135.15 187.124C138.669 188.482 143.779 190.152 151.439 189.13C159.098 188.108 169.319 184.383 175.002 181.23C177.725 179.71 179.404 178.339 179.976 177.093Z" fill="#1BDFDA"/>
<path fill-rule="evenodd" clip-rule="evenodd" d="M114.472 243.257C117.145 244.117 120.826 245.114 125.19 245.961C130.897 246.397 136.617 246.297 141.927 245.587C160.802 243.095 174.305 233.114 183.159 222C192.012 210.885 196.227 198.625 196.724 188.046C196.787 186.638 196.787 185.255 196.724 183.909C196.016 183.485 195.295 183.074 194.561 182.676C187.598 178.95 178.794 176.234 170.513 175.324C162.219 174.414 154.448 175.287 146.092 179.149C137.736 183.012 128.808 189.853 122.753 196.693C116.697 203.534 113.514 210.375 111.351 217.365C109.187 224.342 108.031 231.457 107.732 235.656C107.409 239.868 107.944 241.164 114.472 243.257Z" fill="#F85D6B"/>
<path fill-rule="evenodd" clip-rule="evenodd" d="M196.712 183.909C196.003 183.485 195.282 183.074 194.548 182.676C187.585 178.95 178.782 176.234 170.501 175.324C162.207 174.414 154.435 175.287 146.08 179.149C137.724 183.012 128.796 189.853 122.74 196.693C116.685 203.534 113.502 210.375 111.338 217.365C109.933 221.9 108.951 226.486 108.354 230.298C111.749 231.731 115.566 233.002 119.744 234.036C130.922 236.815 144.724 237.887 158.713 235.581C163.55 234.784 168.399 233.588 173.174 232.13C177.004 229.003 180.324 225.551 183.171 221.987C192.024 210.873 196.24 198.612 196.737 188.033C196.787 186.638 196.787 185.255 196.712 183.909Z" fill="#FDD46A"/>
<path fill-rule="evenodd" clip-rule="evenodd" d="M196.712 183.909C196.003 183.485 195.282 183.074 194.549 182.676C187.585 178.95 178.782 176.234 170.501 175.324C162.207 174.414 154.436 175.287 146.08 179.149C137.724 183.012 128.796 189.853 122.741 196.693C116.959 203.235 113.8 209.764 111.637 216.418C112.52 216.991 113.912 217.614 116.275 218.436C121.621 220.305 131.905 223.233 144.787 223.383C157.681 223.532 173.162 220.891 185.074 217.165C185.757 216.954 186.429 216.729 187.1 216.505C193.28 206.948 196.302 196.905 196.725 188.033C196.787 186.638 196.787 185.255 196.712 183.909Z" fill="#F85D6B"/>
<path fill-rule="evenodd" clip-rule="evenodd" d="M196.712 183.909C196.003 183.485 195.282 183.074 194.548 182.676C187.585 178.95 178.782 176.234 170.5 175.324C162.207 174.414 154.435 175.287 146.08 179.149C137.724 183.012 128.796 189.853 122.74 196.693C122.529 196.93 122.33 197.167 122.131 197.403C124.456 199.123 127.478 200.693 131.544 201.715C139.091 203.609 150.183 203.609 160.404 202.5C170.625 201.378 179.951 199.148 187.2 195.759C190.942 194.002 194.126 191.946 196.612 189.952C196.675 189.304 196.712 188.669 196.737 188.046C196.787 186.638 196.787 185.255 196.712 183.909Z" fill="#FDD46A"/>
<path fill-rule="evenodd" clip-rule="evenodd" d="M179.976 177.093C176.83 176.283 173.622 175.673 170.501 175.336C162.207 174.427 154.436 175.299 146.08 179.162C142.001 181.043 137.786 183.647 133.832 186.6C134.242 186.775 134.69 186.937 135.15 187.124C138.669 188.482 143.779 190.152 151.439 189.13C159.098 188.108 169.319 184.383 175.002 181.23C177.725 179.71 179.404 178.339 179.976 177.093Z" fill="#F85D6B"/>
<path fill-rule="evenodd" clip-rule="evenodd" d="M475.317 222.947C473.228 228.317 469.311 238.51 467.346 243.668C465.382 248.827 465.382 248.939 465.432 249.001C465.469 249.063 465.568 249.063 465.705 249.151C465.842 249.25 466.028 249.437 466.377 249.549C466.712 249.661 467.197 249.686 467.632 249.587C468.068 249.487 468.441 249.25 470.48 244.117C472.519 238.983 476.225 228.953 478.077 223.844C479.93 218.723 479.955 218.523 479.88 218.2C479.806 217.876 479.644 217.439 479.308 217.128C478.96 216.816 478.438 216.642 478.052 216.829C477.642 217.016 477.393 217.577 475.317 222.947Z" fill="#D97352"/>
<path fill-rule="evenodd" clip-rule="evenodd" d="M475.317 222.947L475.068 223.582C475.802 224.467 476.535 225.327 477.232 226.149L478.077 223.844C479.93 218.723 479.955 218.523 479.88 218.2C479.806 217.876 479.644 217.439 479.308 217.128C478.96 216.816 478.438 216.642 478.052 216.829C477.642 217.016 477.393 217.577 475.317 222.947Z" fill="#D97352"/>
<path fill-rule="evenodd" clip-rule="evenodd" d="M472.293 231.619C470.764 235.606 469.16 239.768 468.041 242.721C468.439 242.597 468.861 242.435 469.272 242.235C470.403 241.699 471.497 240.865 472.38 240.055C473.698 236.616 475.228 232.491 476.546 228.928C475.961 229.439 475.327 229.937 474.693 230.348C473.885 230.859 473.064 231.245 472.293 231.619Z" fill="#F5FBBD"/>
<path fill-rule="evenodd" clip-rule="evenodd" d="M482.029 182.713C492.549 182.713 501.066 191.248 501.066 201.777C501.066 207.359 498.666 212.393 494.836 215.882C494.289 216.38 492.362 217.514 491.566 216.816C488.905 220.031 486.207 220.854 482.017 220.854C471.497 220.854 462.98 212.318 462.98 201.789C462.992 191.248 471.51 182.713 482.029 182.713Z" fill="#FCB74D"/>
<path fill-rule="evenodd" clip-rule="evenodd" d="M491.604 216.841L491.566 216.816C490.074 218.623 488.557 219.67 486.792 220.243L486.617 220.293C487.301 219.682 488.134 218.91 488.93 218.062C490.435 216.455 491.803 214.574 492.822 212.879C493.854 211.184 494.551 209.702 494.924 207.633C495.284 205.565 495.321 202.923 494.675 200.481C494.028 198.039 492.685 195.784 490.833 193.927C488.98 192.071 486.605 190.613 484.33 190.226C482.066 189.828 479.903 190.501 478.15 191.41C476.396 192.32 475.041 193.479 474.046 194.936C473.052 196.394 472.43 198.164 472.181 200.045C471.92 201.927 472.032 203.933 472.989 206.076C473.947 208.219 475.75 210.487 477.416 211.695C479.082 212.904 480.624 213.029 482.091 212.854C483.559 212.68 484.964 212.181 486.095 211.521C487.214 210.848 488.06 210.001 488.632 209.004C489.204 207.995 489.49 206.836 489.403 205.403C489.316 203.97 488.843 202.25 488.06 200.98C487.264 199.709 486.157 198.886 484.814 198.562C483.472 198.251 481.905 198.438 480.985 199.31C480.065 200.182 479.779 201.727 479.953 202.973C480.127 204.219 480.748 205.154 481.358 205.665C481.967 206.175 482.576 206.263 483.123 206.213C483.683 206.151 484.193 205.951 484.528 205.727C484.864 205.503 485.013 205.253 485.175 205.278C485.337 205.303 485.486 205.59 485.486 205.926C485.486 206.263 485.337 206.636 484.69 206.998C484.056 207.359 482.937 207.696 481.892 207.397C480.848 207.11 479.866 206.188 479.244 205.091C478.622 203.982 478.349 202.699 478.597 201.353C478.846 200.02 479.605 198.637 480.711 197.864C481.83 197.092 483.298 196.942 484.777 197.266C486.257 197.59 487.749 198.388 488.868 200.045C489.987 201.69 490.721 204.194 490.683 206.437C490.646 208.68 489.85 210.674 487.985 212.106C486.133 213.539 483.21 214.412 480.823 214.299C478.436 214.2 476.571 213.116 475.116 211.807C473.661 210.499 472.604 208.954 471.808 207.11C471.012 205.253 470.478 203.098 470.565 200.88C470.652 198.662 471.361 196.382 472.505 194.587C473.636 192.781 475.203 191.448 477.23 190.426C479.269 189.404 481.781 188.706 484.404 189.105C487.028 189.504 489.751 190.999 491.803 192.831C493.842 194.675 495.197 196.855 495.869 199.497C496.528 202.138 496.503 205.216 496.13 207.583C495.769 209.938 495.06 211.571 494.215 213.116C493.481 214.387 492.661 215.645 491.604 216.841Z" fill="#DD606D"/>
<path fill-rule="evenodd" clip-rule="evenodd" d="M482.029 182.713C491.479 182.713 499.325 189.616 500.805 198.649C499.86 201.889 497.821 204.942 495.533 207.06C492.399 209.951 488.781 211.085 484.628 211.733C480.487 212.381 475.824 212.555 471.659 210.213C468.227 208.281 465.131 204.643 462.992 200.992C463.415 190.837 471.771 182.713 482.029 182.713Z" fill="#FDD46A"/>
<path fill-rule="evenodd" clip-rule="evenodd" d="M494.924 207.608C495.284 205.54 495.321 202.911 494.675 200.469C494.028 198.026 492.685 195.771 490.833 193.915C488.98 192.058 486.605 190.6 484.33 190.214C482.066 189.815 479.903 190.476 478.15 191.398C476.396 192.307 475.041 193.466 474.046 194.936C473.052 196.394 472.43 198.164 472.181 200.045C471.92 201.927 472.032 203.933 472.989 206.076C473.947 208.219 475.75 210.487 477.416 211.695C477.627 211.857 477.851 211.994 478.063 212.119C476.981 212.032 475.899 211.857 474.842 211.558C473.524 210.3 472.554 208.842 471.808 207.11C471.012 205.266 470.478 203.098 470.565 200.88C470.652 198.662 471.361 196.382 472.505 194.575C473.636 192.768 475.203 191.435 477.23 190.413C479.269 189.392 481.781 188.694 484.404 189.093C487.028 189.491 489.751 190.986 491.803 192.818C493.842 194.662 495.197 196.843 495.869 199.484C496.428 201.702 496.49 204.232 496.279 206.375C496.043 206.624 495.794 206.861 495.545 207.098C495.334 207.259 495.123 207.434 494.924 207.608ZM486.12 211.483C487.252 211.259 488.333 210.998 489.39 210.636C490.261 209.415 490.646 207.982 490.671 206.412C490.708 204.169 489.975 201.665 488.856 200.02C487.737 198.375 486.257 197.565 484.765 197.241C483.285 196.918 481.818 197.08 480.699 197.84C479.58 198.612 478.834 199.995 478.585 201.328C478.336 202.662 478.61 203.958 479.231 205.066C479.853 206.175 480.836 207.085 481.88 207.372C482.924 207.658 484.044 207.322 484.678 206.973C485.312 206.612 485.474 206.238 485.474 205.901C485.474 205.565 485.324 205.278 485.163 205.253C485.001 205.228 484.852 205.478 484.516 205.702C484.18 205.926 483.671 206.126 483.111 206.188C482.551 206.238 481.955 206.151 481.345 205.64C480.736 205.129 480.114 204.194 479.94 202.948C479.766 201.702 480.052 200.157 480.972 199.285C481.892 198.413 483.472 198.226 484.802 198.537C486.145 198.861 487.252 199.684 488.047 200.955C488.843 202.226 489.303 203.945 489.39 205.378C489.477 206.811 489.191 207.97 488.619 208.979C488.06 209.976 487.239 210.811 486.12 211.483Z" fill="#F85D6B"/>
<path fill-rule="evenodd" clip-rule="evenodd" d="M86.1858 265.735C88.7349 267.941 92.8009 272.75 94.7779 275.977C96.755 279.217 96.6555 280.874 96.0462 281.285C95.4369 281.697 94.3179 280.849 91.9429 278.27C89.568 275.691 85.9371 271.38 83.9974 268.775C82.0452 266.171 81.7965 265.262 82.1944 264.601C82.5799 263.941 83.6368 263.53 86.1858 265.735Z" fill="#BF595B"/>
<path d="M209.186 262.358C218.237 262.358 225.574 255.011 225.574 245.948C225.574 236.885 218.237 229.538 209.186 229.538C200.135 229.538 192.797 236.885 192.797 245.948C192.797 255.011 200.135 262.358 209.186 262.358Z" fill="#F85D6B"/>
<path fill-rule="evenodd" clip-rule="evenodd" d="M231.953 274.931C243.865 274.931 253.576 265.199 253.576 253.275C253.576 241.351 243.865 231.619 231.953 231.619C220.041 231.619 210.33 241.351 210.33 253.275C210.33 265.199 220.041 274.931 231.953 274.931Z" fill="#F58E44"/>
<path fill-rule="evenodd" clip-rule="evenodd" d="M231.953 231.619C243.666 231.619 253.203 240.952 253.564 252.59C250.082 259.206 243.144 263.717 235.149 263.717C223.659 263.717 214.346 254.384 214.346 242.883C214.346 242.073 214.396 241.276 214.483 240.503C218.425 235.108 224.778 231.619 231.953 231.619Z" fill="#F6B654"/>
<path fill-rule="evenodd" clip-rule="evenodd" d="M216.758 238.46C218.4 239.805 221.608 241.724 225.151 245.45C228.708 249.188 232.612 254.733 234.999 259.804C237.399 264.875 238.282 269.473 239.165 271.99C240.048 274.52 240.918 274.968 242.385 274.582C243.852 274.196 245.917 272.987 247.272 271.679C248.627 270.383 249.274 269 249.299 267.143C249.336 265.299 248.752 262.994 247.309 259.007C245.854 255.019 243.529 249.362 240.197 244.839C236.864 240.316 232.537 236.927 229.777 234.759C227.016 232.579 225.835 231.619 224.269 231.432C222.689 231.245 220.737 231.843 219.108 232.666C217.492 233.488 216.211 234.535 215.614 235.444C215.017 236.354 215.117 237.114 216.758 238.46Z" fill="#FCB058"/>
<path fill-rule="evenodd" clip-rule="evenodd" d="M216.758 238.46C218.4 239.805 221.608 241.724 225.151 245.45C228.708 249.188 232.612 254.733 234.999 259.804C235.621 261.137 236.156 262.421 236.591 263.654C240.669 263.38 244.425 261.922 247.521 259.617L247.297 259.007C245.842 255.019 243.517 249.362 240.184 244.839C236.852 240.316 232.525 236.927 229.765 234.759C227.004 232.579 225.823 231.619 224.256 231.432C222.677 231.245 220.725 231.843 219.096 232.666C217.666 233.388 216.497 234.298 215.838 235.12C215.639 235.619 215.453 236.13 215.291 236.641C215.415 237.151 215.851 237.712 216.758 238.46Z" fill="#FDD46A"/>
<path fill-rule="evenodd" clip-rule="evenodd" d="M197.348 288.039C208.813 288.039 218.151 278.681 218.151 267.205C218.151 255.73 208.8 246.372 197.348 246.372C185.884 246.372 176.546 255.73 176.546 267.205C176.546 278.669 185.896 288.039 197.348 288.039Z" fill="#F4103E"/>
<path fill-rule="evenodd" clip-rule="evenodd" d="M197.348 246.36C202.434 246.36 207.097 248.191 210.715 251.232C211.536 253.462 211.983 255.879 211.983 258.396C211.983 269.897 202.67 279.23 191.181 279.23C186.095 279.23 181.432 277.398 177.814 274.37C176.993 272.14 176.546 269.722 176.546 267.206C176.546 255.692 185.859 246.36 197.348 246.36Z" fill="#F63943"/>
<path fill-rule="evenodd" clip-rule="evenodd" d="M175.974 257.001C178.274 256.353 182.639 255.58 186.928 255.294C191.231 255.007 195.458 255.206 199.462 255.867C203.466 256.527 207.246 257.636 210.765 258.807C214.284 259.979 217.542 261.2 219.233 261.947C220.924 262.695 221.061 262.969 221.11 264.564C221.16 266.159 221.123 269.087 220.886 271.068C220.65 273.049 220.215 274.084 219.805 274.607C219.394 275.13 219.021 275.13 217.915 274.731C216.796 274.345 214.943 273.56 212.008 272.7C209.086 271.841 205.095 270.894 200.357 270.096C195.62 269.299 190.136 268.651 185.71 268.539C181.283 268.414 177.901 268.825 175.986 268.962C174.071 269.099 173.636 268.962 173.412 267.205C173.189 265.449 173.189 262.059 173.313 260.103C173.437 258.147 173.673 257.649 175.974 257.001Z" fill="#F62F5E"/>
<path fill-rule="evenodd" clip-rule="evenodd" d="M175.974 257.001C178.274 256.353 182.639 255.58 186.928 255.294C191.231 255.007 195.458 255.206 199.462 255.867C203.466 256.527 207.246 257.636 210.765 258.807C211.163 258.944 211.561 259.081 211.959 259.206C211.785 263.854 210.081 268.103 207.358 271.492C205.281 271.006 202.931 270.532 200.357 270.096C195.62 269.299 190.136 268.651 185.71 268.539C181.283 268.414 177.901 268.825 175.986 268.962C174.071 269.099 173.636 268.962 173.412 267.205C173.189 265.449 173.189 262.059 173.313 260.103C173.437 258.147 173.673 257.649 175.974 257.001Z" fill="#F85D6B"/>
<path fill-rule="evenodd" clip-rule="evenodd" d="M146.417 263.804C149.165 263.791 154.077 264.726 157.024 265.872C159.958 267.019 160.916 268.389 160.692 269.087C160.468 269.785 159.063 269.822 156.228 269.436C153.393 269.05 149.116 268.227 146.592 267.554C144.067 266.869 143.296 266.321 143.197 265.561C143.11 264.801 143.682 263.829 146.417 263.804Z" fill="#BF595B"/>
<path fill-rule="evenodd" clip-rule="evenodd" d="M158.864 326.778C161.612 326.765 166.524 327.7 169.471 328.858C172.405 330.005 173.363 331.375 173.139 332.073C172.915 332.771 171.51 332.808 168.675 332.422C165.84 332.036 161.562 331.213 159.038 330.528C156.514 329.843 155.756 329.295 155.644 328.534C155.557 327.774 156.116 326.803 158.864 326.778Z" fill="#BF595B"/>
<path fill-rule="evenodd" clip-rule="evenodd" d="M235.982 324.011C235.124 326.242 232.749 329.805 230.747 331.762C228.745 333.705 227.116 334.042 226.569 333.556C226.022 333.07 226.544 331.774 227.812 329.618C229.081 327.463 231.082 324.435 232.488 322.691C233.893 320.934 234.701 320.46 235.434 320.672C236.181 320.859 236.84 321.769 235.982 324.011Z" fill="#BF595B"/>
<path fill-rule="evenodd" clip-rule="evenodd" d="M345.54 311.202C348.089 313.408 352.155 318.217 354.132 321.457C356.109 324.697 356.01 326.354 355.401 326.765C354.791 327.176 353.672 326.329 351.297 323.75C348.922 321.171 345.291 316.859 343.352 314.255C341.412 311.651 341.151 310.741 341.549 310.081C341.934 309.408 342.991 308.997 345.54 311.202Z" fill="#BF595B"/>
<path fill-rule="evenodd" clip-rule="evenodd" d="M438.661 257.387C437.803 259.617 435.428 263.181 433.426 265.125C431.424 267.068 429.795 267.405 429.248 266.919C428.701 266.433 429.223 265.137 430.491 262.981C431.76 260.826 433.761 257.81 435.179 256.054C436.584 254.297 437.392 253.811 438.138 254.035C438.847 254.247 439.519 255.156 438.661 257.387Z" fill="#BF595B"/>
<path fill-rule="evenodd" clip-rule="evenodd" d="M515.392 283.105C513.216 284.101 509.026 284.974 506.241 284.961C503.456 284.949 502.051 284.039 502.001 283.316C501.951 282.581 503.232 282.033 505.644 281.373C508.056 280.712 511.6 279.965 513.826 279.703C516.052 279.441 516.972 279.653 517.345 280.326C517.73 280.986 517.568 282.108 515.392 283.105Z" fill="#BF595B"/>
<path fill-rule="evenodd" clip-rule="evenodd" d="M360.76 262.595C358.584 263.592 354.393 264.464 351.608 264.452C348.823 264.439 347.418 263.53 347.368 262.807C347.318 262.072 348.599 261.524 351.011 260.863C353.423 260.203 356.967 259.455 359.193 259.194C361.419 258.932 362.339 259.144 362.712 259.817C363.097 260.489 362.936 261.598 360.76 262.595Z" fill="#BF595B"/>
<path fill-rule="evenodd" clip-rule="evenodd" d="M498.208 256.851C495.833 257.138 491.581 256.689 488.92 255.817C486.271 254.945 485.214 253.661 485.389 252.951C485.563 252.241 486.955 252.104 489.455 252.216C491.954 252.328 495.56 252.702 497.761 253.138C499.962 253.574 500.77 254.06 500.931 254.808C501.081 255.555 500.583 256.564 498.208 256.851Z" fill="#BF595B"/>
<path fill-rule="evenodd" clip-rule="evenodd" d="M393.487 230.261C391.112 230.535 386.859 230.099 384.198 229.227C381.55 228.355 380.493 227.071 380.667 226.361C380.841 225.651 382.234 225.514 384.733 225.626C387.232 225.738 390.838 226.112 393.039 226.548C395.24 226.984 396.048 227.47 396.197 228.218C396.359 228.965 395.862 229.974 393.487 230.261Z" fill="#BF595B"/>
<path opacity="0.57" fill-rule="evenodd" clip-rule="evenodd" d="M186.655 252.278C187.103 251.506 189.142 250.01 191.455 249.101C193.78 248.191 196.391 247.867 197.672 247.942C198.94 248.017 198.878 248.49 198.07 249.213C197.274 249.936 195.732 250.895 194.016 251.58C192.288 252.278 190.373 252.702 188.856 252.889C187.326 253.088 186.207 253.051 186.655 252.278Z" fill="white"/>
<path opacity="0.57" fill-rule="evenodd" clip-rule="evenodd" d="M177.093 258.882C178.498 258.433 181.32 257.885 183.708 257.574C186.095 257.262 188.047 257.187 189.341 257.237C190.634 257.287 191.255 257.449 191.255 257.798C191.255 258.147 190.634 258.683 188.744 259.081C186.866 259.48 183.72 259.742 181.345 259.866C178.97 259.991 177.341 259.991 176.521 259.829C175.713 259.667 175.688 259.331 177.093 258.882Z" fill="white"/>
<path opacity="0.66" fill-rule="evenodd" clip-rule="evenodd" d="M203.28 233.775C202.509 234.161 201.128 234.859 199.81 235.93C198.492 237.002 197.236 238.472 196.702 239.569C196.167 240.665 196.354 241.413 196.664 241.625C196.975 241.836 197.423 241.525 198.094 240.902C198.766 240.279 199.674 239.357 200.706 238.472C201.738 237.588 202.906 236.74 203.727 236.13C204.56 235.532 205.058 235.183 205.107 234.734C205.157 234.298 204.772 233.762 204.498 233.538C204.225 233.326 204.05 233.401 203.28 233.775Z" fill="white"/>
<path fill-rule="evenodd" clip-rule="evenodd" d="M266.922 294.915C267.258 291.95 267.967 287.177 269.049 283.14C270.13 279.103 271.585 275.826 273.139 273.234C274.694 270.643 276.348 268.749 278.213 268.176C280.078 267.602 282.142 268.35 284.131 271.652C286.133 274.954 288.061 280.81 289.752 285.072C291.443 289.32 292.898 291.962 293.072 294.317C293.246 296.672 292.127 298.74 289.242 300.074C286.37 301.407 281.732 302.017 277.678 301.918C273.624 301.818 270.13 301.008 268.377 300.024C266.624 299.027 266.587 297.881 266.922 294.915Z" fill="#F63943"/>
<path fill-rule="evenodd" clip-rule="evenodd" d="M270.677 278.243C271.436 276.349 272.282 274.68 273.152 273.234C274.706 270.643 276.36 268.749 278.225 268.176C280.09 267.602 282.154 268.35 284.144 271.652C284.927 272.935 285.686 274.605 286.432 276.424C286.121 276.549 285.798 276.661 285.462 276.786C282.913 277.683 279.245 278.617 275.863 278.804C273.923 278.891 272.083 278.754 270.677 278.243Z" fill="#F6B654"/>
<path fill-rule="evenodd" clip-rule="evenodd" d="M262.608 296.311C265.281 295.127 269.944 292.822 274.992 291.401C280.028 289.981 285.449 289.433 291.468 290.118C297.486 290.791 304.126 292.697 308.515 294.653C312.917 296.622 315.08 298.653 314.981 300.921C314.881 303.189 312.519 305.693 308.142 307.288C303.778 308.883 297.424 309.556 289.603 309.356C281.781 309.157 272.518 308.073 267.246 307.363C261.974 306.653 260.68 306.316 259.909 304.759C259.126 303.201 258.865 300.422 259.064 299.002C259.263 297.569 259.947 297.494 262.608 296.311Z" fill="#F9F9C7"/>
<path opacity="0.72" fill-rule="evenodd" clip-rule="evenodd" d="M275.328 274.206C274.147 276.075 272.232 279.614 271.274 282.654C270.317 285.682 270.317 288.199 270.702 289.358C271.088 290.517 271.859 290.342 272.53 288.834C273.189 287.339 273.749 284.536 274.545 281.495C275.34 278.468 276.372 275.215 276.671 273.683C276.957 272.15 276.509 272.337 275.328 274.206Z" fill="white"/>
<path fill-rule="evenodd" clip-rule="evenodd" d="M237.506 118.298C238.038 114.019 239.934 110.693 241.854 107.515C243.774 104.337 245.732 101.32 250.353 98.5629C254.974 95.8055 262.271 93.2954 272.231 91.0573C282.192 88.8316 294.804 86.8655 308.357 87.459C321.91 88.0526 336.405 91.1933 345.635 93.6169C354.864 96.0404 358.841 97.7344 361.604 99.4903C364.379 101.246 365.952 103.076 367.402 106.031C368.851 108.987 370.177 113.067 371.032 116.27C371.886 119.472 372.258 121.797 372.072 124.938C371.886 128.078 371.131 132.035 366.869 136.276C362.62 140.518 354.864 145.043 346.118 152.499C337.371 159.956 327.621 170.33 320.064 176.611C312.507 182.893 307.13 185.094 298.706 182.596C290.282 180.111 278.822 172.939 268.738 166.41C258.653 159.869 249.956 153.971 245.174 148.493C240.38 143.028 239.5 137.995 238.658 132.876C237.79 127.794 236.96 122.576 237.506 118.298Z" fill="#8D353D"/>
<path fill-rule="evenodd" clip-rule="evenodd" d="M360.997 227.407C363.474 209.082 368.38 173.124 371.155 151.943C373.931 130.762 374.562 124.356 374.302 120.14C374.054 115.923 372.915 113.92 370.809 112.535C368.702 111.151 365.605 110.396 362.843 111.596C360.067 112.795 357.615 115.936 355.942 119.386C354.27 122.848 353.39 126.607 350.243 147.924C347.096 169.229 341.67 208.068 338.932 227.617C336.194 247.167 336.132 247.414 336.343 247.599C336.566 247.785 337.062 247.909 340.654 247.958C344.247 247.995 350.925 247.946 354.356 247.933C357.788 247.921 357.986 247.933 358.122 247.81C358.259 247.686 358.358 247.414 358.42 246.932C358.494 246.449 358.531 245.745 360.997 227.407Z" fill="#D68364"/>
<path fill-rule="evenodd" clip-rule="evenodd" d="M350.095 151.622C353.365 130.452 354.654 124.925 354.418 120.536C354.183 116.158 352.399 112.919 349.475 111.497C346.539 110.075 342.451 110.446 339.106 112.301C335.773 114.155 333.184 117.482 331.549 123.8C329.913 130.119 329.219 139.417 326.766 160.574C324.313 181.718 320.089 214.721 317.97 231.339C315.864 247.958 315.864 248.218 316.013 248.366C316.174 248.527 316.484 248.589 319.618 248.502C322.753 248.415 328.699 248.193 331.957 248.02C335.216 247.847 335.785 247.723 336.083 247.661C336.368 247.599 336.368 247.599 336.368 247.402C336.368 247.204 336.368 246.808 338.982 228.199C341.583 209.601 346.824 172.791 350.095 151.622Z" fill="#DB8F74"/>
<path fill-rule="evenodd" clip-rule="evenodd" d="M328.241 147.677C330.322 125.952 330.297 122.081 329.38 119.2C328.451 116.319 326.63 114.427 323.855 113.364C321.08 112.301 317.363 112.041 314.378 113.71C311.38 115.379 309.112 118.953 307.861 124.109C306.598 129.266 306.35 135.992 306.127 157.075C305.904 178.157 305.718 213.608 305.78 231.339C305.842 249.059 306.152 249.059 307.911 248.947C309.658 248.836 312.841 248.601 314.725 248.514C316.608 248.428 317.202 248.49 319.593 228.73C321.972 208.971 326.159 169.403 328.241 147.677Z" fill="#DF9980"/>
<path fill-rule="evenodd" clip-rule="evenodd" d="M248.42 227.407C245.422 209.082 239.45 173.124 236.143 151.943C232.823 130.774 232.154 124.356 232.414 120.152C232.686 115.936 233.9 113.933 236.155 112.548C238.41 111.163 241.718 110.409 244.679 111.608C247.639 112.807 250.278 115.948 252.062 119.398C253.846 122.86 254.788 126.619 258.158 147.937C261.527 169.242 267.325 208.081 270.261 227.63C273.197 247.179 273.259 247.426 273.024 247.612C272.789 247.797 272.244 247.921 268.762 247.97C265.269 248.007 258.839 247.958 255.519 247.946C252.199 247.933 252 247.946 251.839 247.822C251.691 247.698 251.591 247.426 251.517 246.944C251.455 246.449 251.418 245.745 248.42 227.407Z" fill="#E7BFA4"/>
<path fill-rule="evenodd" clip-rule="evenodd" d="M258.331 151.622C254.837 130.452 253.45 124.925 253.71 120.536C253.97 116.158 255.866 112.919 259 111.497C262.134 110.075 266.52 110.446 270.1 112.301C273.668 114.155 276.431 117.482 278.19 123.8C279.937 130.119 280.68 139.417 283.307 160.574C285.933 181.718 290.455 214.721 292.71 231.339C294.964 247.958 294.964 248.218 294.803 248.366C294.63 248.527 294.295 248.589 290.951 248.502C287.606 248.415 281.238 248.193 277.756 248.02C274.263 247.847 273.656 247.723 273.346 247.661C273.036 247.599 273.036 247.599 273.036 247.402C273.036 247.204 273.036 246.808 270.237 228.199C267.437 209.601 261.825 172.791 258.331 151.622Z" fill="#E6BA9C"/>
<path fill-rule="evenodd" clip-rule="evenodd" d="M281.709 147.677C279.479 125.952 279.503 122.081 280.494 119.2C281.486 116.319 283.443 114.427 286.404 113.364C289.365 112.301 293.342 112.041 296.55 113.71C299.747 115.379 302.175 118.953 303.525 124.109C304.875 129.266 305.148 135.992 305.383 157.075C305.619 178.157 305.817 213.608 305.755 231.339C305.693 249.059 305.346 249.059 303.476 248.947C301.605 248.836 298.21 248.601 296.191 248.514C294.172 248.428 293.54 248.49 290.975 228.73C288.411 208.971 283.926 169.403 281.709 147.677Z" fill="#E3B091"/>
<path fill-rule="evenodd" clip-rule="evenodd" d="M360.997 227.407C363.474 209.082 368.38 173.124 371.155 151.943C371.478 149.47 371.775 147.195 372.047 145.105C370.97 149.643 369.52 154.577 367.513 159.622C362.446 172.407 353.923 185.996 343.132 197.644C341.522 209.132 340.01 219.889 338.932 227.617C336.194 247.167 336.132 247.414 336.343 247.599C336.566 247.785 337.062 247.909 340.654 247.958C344.247 247.995 350.925 247.946 354.356 247.933C357.788 247.921 357.986 247.933 358.122 247.81C358.259 247.686 358.358 247.414 358.42 246.932C358.494 246.449 358.531 245.745 360.997 227.407Z" fill="#CF7260"/>
<path fill-rule="evenodd" clip-rule="evenodd" d="M319.779 217.008L317.958 231.339C315.852 247.958 315.852 248.218 316.001 248.366C316.162 248.527 316.471 248.589 319.606 248.502C322.74 248.416 328.687 248.193 331.945 248.02C335.203 247.847 335.773 247.723 336.07 247.661C336.355 247.599 336.355 247.599 336.355 247.402C336.355 247.204 336.355 246.808 338.969 228.199C340.072 220.334 341.645 209.231 343.343 197.422C336.702 204.618 329.207 211.085 321.13 216.167C320.684 216.464 320.225 216.736 319.779 217.008Z" fill="#D57E68"/>
<path fill-rule="evenodd" clip-rule="evenodd" d="M305.755 224.106C305.755 226.739 305.755 229.175 305.768 231.339C305.83 249.058 306.139 249.058 307.899 248.947C309.645 248.836 312.829 248.601 314.712 248.514C316.595 248.428 317.19 248.49 319.581 228.73C320.015 225.144 320.51 220.903 321.043 216.229C316.087 219.345 310.934 221.929 305.755 224.106Z" fill="#F268BC"/>
<path fill-rule="evenodd" clip-rule="evenodd" d="M271.24 234.072C273.21 247.228 273.235 247.439 273.036 247.599C272.801 247.785 272.256 247.909 268.775 247.958C265.281 247.995 258.851 247.946 255.531 247.933C252.211 247.921 252.013 247.933 251.852 247.81C251.703 247.686 251.604 247.414 251.53 246.932C251.48 246.573 251.455 246.103 250.254 238.659C252.347 237.979 255.767 237.064 262.11 235.828C264.711 235.321 267.796 234.752 271.24 234.072Z" fill="#F15993"/>
<path fill-rule="evenodd" clip-rule="evenodd" d="M292.375 228.916L292.71 231.339C294.965 247.958 294.965 248.218 294.804 248.366C294.63 248.527 294.296 248.589 290.951 248.502C287.606 248.416 281.238 248.193 277.757 248.02C274.263 247.847 273.656 247.723 273.346 247.661C273.037 247.599 273.037 247.599 273.037 247.402C273.037 247.228 273.037 246.895 271.129 234.097C277.298 232.885 284.632 231.278 292.375 228.916Z" fill="#EE61B7"/>
<path fill-rule="evenodd" clip-rule="evenodd" d="M305.755 224.106C305.755 226.739 305.755 229.175 305.743 231.339C305.681 249.058 305.334 249.058 303.463 248.947C301.593 248.836 298.198 248.601 296.179 248.514C294.184 248.428 293.54 248.477 291.037 229.311C295.832 227.902 300.8 226.195 305.755 224.106Z" fill="#F268BC"/>
<path fill-rule="evenodd" clip-rule="evenodd" d="M280.594 239.129C279.355 226.715 276.815 203.159 275.378 189.669C273.941 176.179 273.594 172.766 274.486 170.318C275.378 167.869 277.509 166.373 281.374 165.433C285.239 164.494 290.851 164.123 299.759 164.073C308.667 164.024 320.882 164.308 327.621 165.854C334.361 167.399 335.637 170.194 334.856 184.76C334.076 199.326 331.239 225.664 329.504 238.919C327.77 252.174 327.138 252.372 325.887 252.496C324.623 252.62 322.74 252.681 315.27 252.941C307.799 253.188 294.766 253.634 288.275 253.226C281.771 252.805 281.832 251.544 280.594 239.129Z" fill="#86442C"/>
<path fill-rule="evenodd" clip-rule="evenodd" d="M287.903 250.889C286.999 242.814 285.487 226.665 284.211 212.507C282.935 198.349 281.894 186.207 281.436 179.913C280.978 173.631 281.101 173.211 282.997 172.84C284.88 172.469 288.535 172.16 295.881 172.209C303.215 172.259 314.241 172.679 319.953 173.087C325.676 173.495 326.085 173.891 326.296 174.608C326.506 175.325 326.506 176.364 326.556 182.522C326.605 188.68 326.705 199.969 326.147 210.949C325.602 221.929 324.4 232.613 323.483 240.156C322.567 247.698 321.935 252.1 321.464 254.61C320.993 257.121 320.671 257.751 315.604 258.184C310.537 258.604 300.701 258.827 295.547 258.926C290.393 259.025 289.898 258.988 289.501 258.975C289.105 258.963 288.807 258.963 287.903 250.889Z" fill="#A15F3D"/>
<path fill-rule="evenodd" clip-rule="evenodd" d="M253.983 83.292C250.266 86.1236 245.1 89.9568 242.015 93.5674C238.93 97.178 237.914 100.578 239.934 102.309C241.953 104.041 246.995 104.102 249.857 103.88C252.719 103.657 253.413 103.163 253.983 103.163C254.552 103.163 254.986 103.67 256.225 105.017C257.464 106.365 259.496 108.579 263.212 109.667C266.929 110.767 272.33 110.767 276.419 109.543C280.507 108.319 283.282 105.871 284.756 104.634C286.243 103.41 286.429 103.41 286.676 103.657C286.924 103.905 287.246 104.412 289.006 105.673C290.765 106.934 293.986 108.937 298.148 110.137C302.311 111.336 307.415 111.707 311.343 110.668C315.282 109.63 318.057 107.181 319.531 105.982C321.018 104.783 321.204 104.844 321.551 105.191C321.898 105.537 322.406 106.167 325.354 107.392C328.303 108.628 333.692 110.458 338.164 110.087C342.637 109.704 346.192 107.12 348.162 105.475C350.132 103.83 350.503 103.138 350.85 102.792C351.197 102.446 351.507 102.446 353.217 102.792C354.914 103.138 358.011 103.83 360.427 103.731C362.855 103.633 364.614 102.755 365.655 101.308C366.695 99.8612 367.005 97.8457 365.06 94.8286C363.103 91.8115 358.891 87.7929 355.298 84.615C351.705 81.4372 348.744 79.1126 343.826 76.8868C338.908 74.6488 332.044 72.522 323.533 71.7677C315.022 71.0134 304.888 71.644 294.395 72.7074C283.901 73.7708 273.061 75.2794 266.508 76.9487C259.966 78.6427 257.699 80.4604 253.983 83.292Z" fill="#A15F3D"/>
<path fill-rule="evenodd" clip-rule="evenodd" d="M308.109 61.1955C314.972 61.6036 324.995 62.7041 332.614 64.9793C340.233 67.2544 345.474 70.7167 348.335 73.7337C351.197 76.7508 351.705 79.3228 351.395 80.8313C351.086 82.3398 349.946 82.785 347.555 82.5624C345.164 82.3398 341.509 81.4619 338.92 80.8066C336.331 80.1512 334.819 79.7061 334.002 79.805C333.184 79.9039 333.06 80.5222 334.472 82.1667C335.885 83.7989 338.846 86.4451 340.704 88.9552C342.562 91.4653 343.318 93.8517 343.132 95.8054C342.946 97.7591 341.806 99.2677 339.725 99.4779C337.644 99.7004 334.621 98.6247 331.722 96.4237C328.823 94.2227 326.048 90.8965 323.273 88.4111C320.498 85.9257 317.723 84.2935 315.679 83.4774C313.634 82.6613 312.309 82.6613 311.392 84.6398C310.475 86.6182 309.98 90.575 309.187 93.9136C308.394 97.2398 307.329 99.9477 304.999 101.048C302.67 102.149 299.078 101.642 297.095 98.7854C295.113 95.9291 294.729 90.711 294.011 87.6568C293.28 84.615 292.214 83.7247 290.728 84.615C289.241 85.4929 287.358 88.1391 285.376 91.2427C283.393 94.3587 281.312 97.9322 278.574 99.8859C275.836 101.84 272.429 102.149 270.509 101.11C268.589 100.071 268.143 97.6849 268.552 94.9151C268.961 92.1454 270.224 89.0046 270.633 86.68C271.042 84.3554 270.596 82.8468 268.366 82.7232C266.124 82.5995 262.097 83.8484 258.628 85.1467C255.159 86.4327 252.261 87.7558 249.746 88.2009C247.231 88.646 245.087 88.2009 244.456 86.2843C243.824 84.3677 244.703 80.9797 249.907 76.8868C255.11 72.8064 264.624 68.0211 272.652 65.3255C280.68 62.6175 287.234 61.9993 292.375 61.5418C297.517 61.0719 301.233 60.7875 308.109 61.1955Z" fill="#F6DAAA"/>
<path fill-rule="evenodd" clip-rule="evenodd" d="M308.109 61.1955C314.972 61.6036 324.995 62.7041 332.626 64.9792C337.359 66.3889 341.175 68.2684 344.074 70.1973C343.888 72.3365 341.571 73.5359 339.329 74.2901C336.368 75.2794 333.531 75.5143 332.341 77.2701C331.165 79.026 331.635 82.3151 330.818 83.9226C329.988 85.53 327.869 85.4682 324.599 84.3677C321.328 83.2672 316.942 81.1528 312.916 81.7587C308.902 82.3769 305.247 85.7402 302.2 85.4929C299.14 85.258 296.662 81.4124 294.432 80.1141C292.202 78.8158 290.207 80.0399 286.664 82.5871C283.121 85.122 278.042 88.9675 275.948 89.5858C273.854 90.204 274.746 87.595 273.668 84.9612C272.59 82.3151 269.555 79.6442 266.247 79.1373C262.94 78.6303 259.347 80.2872 256.089 80.7324C252.83 81.1775 249.894 80.3985 249.981 77.8142C249.993 77.468 250.055 77.0847 250.179 76.6766C255.432 72.6332 264.761 67.9716 272.665 65.3131C280.693 62.6051 287.246 61.9869 292.388 61.5294C297.517 61.0719 301.233 60.7875 308.109 61.1955Z" fill="#F9F9C7"/>
<path fill-rule="evenodd" clip-rule="evenodd" d="M308.109 61.1956C314.824 61.5913 324.561 62.6547 332.131 64.8433C331.697 65.6718 330.929 66.4384 329.789 67.0814C326.903 68.6889 321.675 69.4431 316.385 69.777C311.095 70.1108 305.743 70.0119 302.547 69.4679C299.35 68.9238 298.31 67.9099 298.557 66.1416C298.756 64.7073 299.771 62.7783 302.435 61.0101C304.108 61.0101 305.953 61.072 308.109 61.1956Z" fill="#F6DAAA"/>
<path fill-rule="evenodd" clip-rule="evenodd" d="M303.823 70.2221C314.65 70.2221 323.484 61.4181 323.484 50.611C323.484 39.8039 314.65 31 303.823 31C292.995 31 284.162 39.8039 284.162 50.611C284.162 61.4058 292.995 70.2221 303.823 70.2221Z" fill="#F63672"/>
<path fill-rule="evenodd" clip-rule="evenodd" d="M303.823 31C314.675 31 323.484 39.7792 323.484 50.611C323.484 51.0191 323.471 51.4271 323.446 51.8352C319.841 56.2743 314.328 59.1182 308.159 59.1182C297.306 59.1182 288.498 50.339 288.498 39.5072C288.498 39.0991 288.51 38.6911 288.535 38.283C292.14 33.844 297.641 31 303.823 31Z" fill="#F85D6B"/>
<path fill-rule="evenodd" clip-rule="evenodd" d="M313.387 36.8857C315.195 36.8857 316.657 38.3448 316.657 40.1501C316.657 41.9554 315.195 43.4145 313.387 43.4145C311.578 43.4145 310.116 41.9554 310.116 40.1501C310.104 38.3448 311.578 36.8857 313.387 36.8857Z" fill="#EFE2E3"/>
<path fill-rule="evenodd" clip-rule="evenodd" d="M303.649 183.029C303.513 186.429 303.401 190.67 303.302 195.283C297.529 195.394 291.867 195.53 287.853 195.666C279.194 195.938 278.227 196.148 278.066 196.556C277.893 196.964 278.512 197.583 286.726 197.657C290.913 197.694 297.083 197.583 303.265 197.422C303.116 204.754 303.017 212.792 302.955 219.741C297.405 219.592 291.966 219.531 288.163 219.555C280.048 219.605 279.355 220.05 279.231 220.47C279.107 220.903 279.541 221.311 287.556 221.781C291.459 222.004 297.157 222.251 302.943 222.461C302.931 225.169 302.918 227.654 302.918 229.781C302.918 231.537 302.918 233.058 302.931 234.381C303.723 234.727 304.504 235.098 305.272 235.469C305.346 234.332 305.421 233.058 305.495 231.611C305.631 229.052 305.768 225.973 305.891 222.572C310.971 222.746 315.877 222.894 319.445 222.993C327.72 223.203 328.687 223.104 328.798 222.597C328.897 222.078 328.142 221.15 319.99 220.507C316.36 220.223 311.256 219.988 305.991 219.827C306.238 212.779 306.449 204.717 306.585 197.335C311.367 197.199 315.951 197.038 319.383 196.902C328.005 196.556 329.442 196.358 329.888 196.012C330.334 195.666 329.777 195.196 321.328 195.122C317.537 195.097 312.173 195.147 306.622 195.233C306.709 190.015 306.759 185.23 306.759 181.52C306.746 168.871 306.127 168.525 305.47 169.056C304.801 169.563 304.132 170.96 303.649 183.029Z" fill="#86442C"/>
</g>
<defs>
<filter id="filter0_d_4_3217" x="0" y="0" width="616.83" height="384.12" filterUnits="userSpaceOnUse" color-interpolation-filters="sRGB">
<feFlood flood-opacity="0" result="BackgroundImageFix"/>
<feColorMatrix in="SourceAlpha" type="matrix" values="0 0 0 0 0 0 0 0 0 0 0 0 0 0 0 0 0 0 127 0" result="hardAlpha"/>
<feOffset dx="-4" dy="-13"/>
<feGaussianBlur stdDeviation="9"/>
<feComposite in2="hardAlpha" operator="out"/>
<feColorMatrix type="matrix" values="0 0 0 0 0 0 0 0 0 0 0 0 0 0 0 0 0 0 0.25 0"/>
<feBlend mode="normal" in2="BackgroundImageFix" result="effect1_dropShadow_4_3217"/>
<feBlend mode="normal" in="SourceGraphic" in2="effect1_dropShadow_4_3217" result="shape"/>
</filter>
</defs>
</svg>
