<svg width="148" height="117" viewBox="0 0 148 117" fill="none" xmlns="http://www.w3.org/2000/svg">
<g filter="url(#filter0_d_2_2277)">
<path d="M129.867 55.818C129.64 60.4625 129.271 64.2549 128.717 66.0729C126.515 73.1889 120.521 79.6799 113.079 80.0208C105.281 80.3759 96.6739 74.2258 91.0494 84.1114C89.3876 87.0373 88.649 90.4036 88.6206 93.7699C88.5638 101.44 82.1439 107.874 74.8149 108.826C69.1762 109.55 63.2392 106.993 59.8872 102.406C57.0039 98.457 56.0807 93.4147 53.7798 89.0827C51.4788 84.7648 46.6638 80.9156 42.0193 82.4922C38.6531 83.6427 36.125 87.435 32.148 85.5744C29.8755 84.5091 28.5261 82.1229 28.4977 79.6231C28.3983 72.0242 28.2989 62.0391 28.1995 51.8126C28.1 41.2025 27.9864 30.351 27.887 21.7437H130.066C130.066 21.7437 130.535 42.353 129.867 55.818Z" fill="#E97D35"/>
<g opacity="0.39">
<path d="M129.668 54.426C129.441 57.5366 129.129 60.008 128.717 61.3716C126.515 68.4876 120.521 74.9785 113.079 75.3194C105.281 75.6745 96.6739 69.5244 91.0494 79.4101C89.3876 82.336 88.649 85.7023 88.6206 89.0685C88.5638 96.7384 82.1439 103.173 74.8149 104.124C69.1762 104.849 63.2392 102.292 59.8872 97.7042C57.0039 93.7556 56.0807 88.7134 53.7797 84.3813C51.4788 80.0634 46.6638 76.2143 42.0193 77.7909C38.6531 78.9414 36.1249 82.7337 32.148 80.873C29.8755 79.8078 28.5261 77.4216 28.4977 74.9217C28.4977 74.7797 28.4977 74.6377 28.4977 74.5099H28.4409C28.4551 76.2995 28.4835 78.0323 28.4977 79.6231C28.5261 82.1229 29.8755 84.5091 32.148 85.5744C36.1249 87.4351 38.6531 83.6427 42.0193 82.4922C46.6638 80.9157 51.4788 84.7648 53.7797 89.0827C56.0807 93.4147 57.0039 98.457 59.8872 102.406C63.2392 106.993 69.1762 109.55 74.8149 108.826C82.1439 107.874 88.5638 101.44 88.6206 93.7699C88.649 90.4036 89.3876 87.0374 91.0494 84.1114C96.6739 74.2258 105.281 80.3759 113.079 80.0208C120.521 79.68 126.515 73.1889 128.717 66.0729C129.271 64.2549 129.64 60.4625 129.867 55.818C129.896 55.3635 129.91 54.8947 129.924 54.426H129.668Z" fill="#E97D35"/>
</g>
<g opacity="0.39">
<path d="M129.867 55.818C128.845 55.9032 127.808 55.7469 126.87 55.3066C123.234 53.588 122.879 49.0145 122.112 45.2222C121.388 41.5292 118.576 37.2397 114.897 38.3618C113.178 38.8873 112.014 40.4498 111.644 42.1968C110.835 45.8471 112.624 49.1849 112.752 52.7216C113.008 59.5251 106.304 65.4622 99.5004 65.1923C92.697 64.9225 86.76 59.241 85.2686 52.5938C84.6721 49.9235 84.7005 47.1254 83.9051 44.4978C82.9251 41.1741 80.1838 37.9357 76.2495 39.001C74.3888 39.5123 72.9259 40.9469 72.1163 42.7081C70.4261 46.4578 71.4488 50.4632 72.443 54.2556C73.6503 58.8433 74.8149 63.7862 71.1079 68.0614C68.7359 70.8027 65.0714 72.152 61.4638 71.8111C52.9417 70.9873 48.0842 62.451 48.5245 54.5538C48.7801 50.0655 50.4846 45.634 48.7091 41.1315C48.0558 39.4839 46.7917 38.092 45.1441 37.4528C41.3234 35.9614 38.227 39.001 36.5226 42.1257C34.4631 45.9039 33.3695 50.4206 28.1995 51.8126C28.1 41.2025 27.9864 30.351 27.887 21.7437H130.066C130.066 21.7437 130.535 42.353 129.867 55.818Z" fill="#E97D35"/>
</g>
<path opacity="0.39" d="M77.684 93.0881C76.0933 94.9914 75.6814 97.264 76.775 98.173C77.8545 99.082 80.0276 98.2724 81.6184 96.3833C83.2092 94.4801 83.6211 92.2075 82.5274 91.2984C81.4337 90.3894 79.2748 91.199 77.684 93.0881Z" fill="#E97D35"/>
<path opacity="0.39" d="M43.7238 68.8568C41.9058 67.1808 39.6474 66.6552 38.6816 67.7063C37.7158 68.7432 38.4259 70.9589 40.2439 72.6349C42.062 74.311 44.3203 74.8365 45.2861 73.7854C46.252 72.7486 45.556 70.547 43.7238 68.8568Z" fill="#E97D35"/>
<path opacity="0.39" d="M34.5768 71.5271C34.1791 71.2715 33.6678 71.3709 33.4405 71.726C33.2133 72.081 33.3553 72.5782 33.753 72.8338C34.1507 73.0895 34.662 72.9901 34.8893 72.635C35.1165 72.2799 34.9745 71.7828 34.5768 71.5271Z" fill="#E97D35"/>
<path opacity="0.39" d="M38.014 66.0589C37.6163 65.8032 37.105 65.9026 36.8777 66.2577C36.6505 66.6128 36.7925 67.1099 37.1902 67.3656C37.5879 67.6213 38.0992 67.5218 38.3265 67.1667C38.5537 66.7974 38.4117 66.3003 38.014 66.0589Z" fill="#E97D35"/>
<path opacity="0.39" d="M78.6499 89.3526C78.2522 89.0969 77.7409 89.1963 77.5136 89.5514C77.2864 89.9065 77.4284 90.4036 77.8261 90.6593C78.2238 90.915 78.7351 90.8155 78.9624 90.4604C79.1896 90.1053 79.0476 89.6082 78.6499 89.3526Z" fill="#E97D35"/>
<path opacity="0.39" d="M75.5962 98.4712C75.1985 98.2156 74.6872 98.315 74.4599 98.67C74.2326 99.0251 74.3747 99.5223 74.7724 99.7779C75.1701 100.034 75.6814 99.9342 75.9086 99.5791C76.1359 99.224 75.9939 98.7269 75.5962 98.4712Z" fill="#E97D35"/>
<path opacity="0.39" d="M57.0039 82.3218C56.6062 82.0661 56.0949 82.1655 55.8676 82.5206C55.6404 82.8757 55.7824 83.3728 56.1801 83.6285C56.5778 83.8842 57.0891 83.7848 57.3164 83.4297C57.5436 83.0746 57.4158 82.5775 57.0039 82.3218Z" fill="#E97D35"/>
<path opacity="0.39" d="M34.6336 66.7406C33.8098 66.4707 32.9434 66.8684 32.6877 67.6496C32.4321 68.4166 32.8866 69.2688 33.7104 69.5387C34.5342 69.8086 35.4006 69.4108 35.6562 68.6296C35.9119 67.8626 35.4574 67.0247 34.6336 66.7406Z" fill="#E97D35"/>
<path opacity="0.39" d="M119.186 67.9905C120.891 66.1866 121.43 63.9424 120.408 62.9624C119.385 61.9966 117.169 62.6641 115.465 64.468C113.761 66.2718 113.221 68.516 114.244 69.496C115.266 70.4761 117.482 69.7943 119.186 67.9905Z" fill="#E97D35"/>
<path opacity="0.39" d="M116.63 58.815C116.885 58.4173 116.8 57.906 116.445 57.6787C116.09 57.4514 115.593 57.5793 115.337 57.977C115.082 58.3747 115.167 58.886 115.522 59.1133C115.877 59.3405 116.374 59.2127 116.63 58.815Z" fill="#E97D35"/>
<path opacity="0.39" d="M122.07 62.3233C122.325 61.9256 122.24 61.4143 121.885 61.187C121.53 60.9597 121.033 61.0876 120.777 61.4853C120.521 61.883 120.607 62.3943 120.962 62.6216C121.317 62.8488 121.814 62.721 122.07 62.3233Z" fill="#E97D35"/>
<path opacity="0.39" d="M121.416 58.9285C121.7 58.1047 121.303 57.2382 120.536 56.9684C119.769 56.6985 118.916 57.153 118.632 57.9626C118.348 58.7864 118.746 59.6528 119.513 59.9227C120.28 60.1925 121.132 59.7381 121.416 58.9285Z" fill="#E97D35"/>
<path opacity="0.39" d="M82.1723 83.7706C81.3485 83.5007 80.4821 83.8985 80.2264 84.6797C79.9708 85.4466 80.4253 86.2988 81.2491 86.5687C82.0729 86.8386 82.9393 86.4409 83.1949 85.6597C83.4506 84.8927 82.9819 84.0405 82.1723 83.7706Z" fill="#E97D35"/>
<path opacity="0.39" d="M75.2837 49.2559C74.9428 50.9035 75.795 52.4801 77.1727 52.7641C78.5646 53.0482 79.9566 51.9403 80.2975 50.2927C80.6383 48.6451 79.7861 47.0685 78.4084 46.7844C77.0165 46.5003 75.6246 47.6083 75.2837 49.2559Z" fill="#E97D35"/>
<path opacity="0.39" d="M82.2859 45.3215C81.8882 45.0659 81.3769 45.1653 81.1497 45.5204C80.9224 45.8755 81.0644 46.3726 81.4621 46.6283C81.8598 46.884 82.3712 46.7845 82.5984 46.4294C82.8257 46.0743 82.6836 45.5772 82.2859 45.3215Z" fill="#E97D35"/>
<path opacity="0.39" d="M75.2126 54.5113C75.4683 54.1136 75.3831 53.6022 75.028 53.375C74.6729 53.1477 74.1758 53.2756 73.9201 53.6733C73.6645 54.071 73.7497 54.5823 74.1048 54.8096C74.4599 55.0368 74.957 54.909 75.2126 54.5113Z" fill="#E97D35"/>
<path opacity="0.39" d="M79.6867 54.1703C78.8629 53.9004 77.9965 54.2981 77.7408 55.0793C77.4852 55.8463 77.9397 56.6985 78.7635 56.9684C79.5873 57.2382 80.4537 56.8405 80.7093 56.0593C80.965 55.2923 80.5105 54.4401 79.6867 54.1703Z" fill="#E97D35"/>
<path opacity="0.39" d="M57.0607 77.9754C56.2369 77.7056 55.3705 78.1033 55.1149 78.8845C54.8592 79.6514 55.3137 80.5037 56.1375 80.7735C56.9613 81.0434 57.8277 80.6457 58.0834 79.8645C58.339 79.0975 57.8845 78.2453 57.0607 77.9754Z" fill="#E97D35"/>
<path d="M124.498 12H38.4543C29.6766 12 21.3392 16.3179 16.6663 23.7463C15.8851 24.982 15.2744 26.2035 14.8909 27.3398C12.8882 33.4615 14.1381 40.9894 19.9047 44.6255C22.2198 46.0885 25.0889 46.5714 27.7591 45.9749C33.3127 44.725 34.4063 40.0662 36.5226 36.1744C38.227 33.0496 41.3234 30.0101 45.1441 31.5015C46.7917 32.1406 48.0558 33.5326 48.6949 35.1802C50.4704 39.6827 48.7659 44.1142 48.5245 48.6025C48.0842 56.4997 52.9417 65.0361 61.4638 65.8599C65.0714 66.2007 68.7217 64.8514 71.0936 62.1101C74.8007 57.8348 73.6361 52.892 72.4288 48.3043C71.4345 44.5119 70.4119 40.5065 72.1163 36.771C72.9117 35.0097 74.3746 33.561 76.2353 33.0497C80.1696 31.9844 82.9109 35.2228 83.9051 38.5464C84.6863 41.1741 84.6721 43.9722 85.2686 46.6566C86.76 53.3039 92.697 58.9711 99.5004 59.241C106.304 59.5109 113.008 53.588 112.752 46.7703C112.624 43.2336 110.835 39.8958 111.63 36.2455C112.014 34.4984 113.178 32.936 114.883 32.4105C118.561 31.2884 121.374 35.5779 122.112 39.2708C122.865 43.0632 123.22 47.6367 126.856 49.3553C128.603 50.1791 130.663 50.0087 132.424 49.1991C135.25 47.8924 137.054 45.2931 138.517 42.6512C141.755 36.842 144.17 20.9624 133.106 14.2584C130.535 12.696 127.509 12 124.498 12Z" fill="#F9F9C7"/>
<path d="M124.498 12H38.4543C29.6766 12 21.3392 16.3179 16.6663 23.7463C15.8851 24.982 15.2744 26.2035 14.8909 27.3398C12.8882 33.4615 14.1381 40.9894 19.9047 44.6255C22.2198 46.0885 25.0889 46.5714 27.7591 45.9749C33.3127 44.725 34.4063 40.0662 36.5226 36.1744C38.227 33.0496 41.3234 30.0101 45.1441 31.5015C46.7917 32.1406 48.0558 33.5326 48.6949 35.1802C50.4704 39.6827 48.7659 44.1142 48.5245 48.6025C48.0842 56.4997 52.9417 65.0361 61.4638 65.8599C65.0714 66.2007 68.7217 64.8514 71.0936 62.1101C74.8007 57.8348 73.6361 52.892 72.4288 48.3043C71.4345 44.5119 70.4119 40.5065 72.1163 36.771C72.9117 35.0097 74.3746 33.561 76.2353 33.0497C80.1696 31.9844 82.9109 35.2228 83.9051 38.5464C84.6863 41.1741 84.6721 43.9722 85.2686 46.6566C86.76 53.3039 92.697 58.9711 99.5004 59.241C106.304 59.5109 113.008 53.588 112.752 46.7703C112.624 43.2336 110.835 39.8958 111.63 36.2455C112.014 34.4984 113.178 32.936 114.883 32.4105C118.561 31.2884 121.374 35.5779 122.112 39.2708C122.865 43.0632 123.22 47.6367 126.856 49.3553C128.603 50.1791 130.663 50.0087 132.424 49.1991C135.25 47.8924 137.054 45.2931 138.517 42.6512C141.755 36.842 144.17 20.9624 133.106 14.2584C130.535 12.696 127.509 12 124.498 12Z" fill="url(#paint0_linear_2_2277)"/>
<path d="M26.14 35.5211C28.8244 39.5833 32.361 40.961 28.9096 43.262C25.444 45.5488 20.4586 44.1284 17.7742 40.0662C15.0897 36.004 15.7147 30.8481 19.1803 28.5613C22.6317 26.2604 23.4555 31.4588 26.14 35.5211Z" fill="url(#paint1_linear_2_2277)"/>
<path d="M63.5516 52.1107C68.3524 56.5422 73.4088 57.1956 69.6307 61.3004C65.8526 65.4052 58.8929 65.1354 54.0922 60.7039C49.2915 56.2724 48.4535 49.3695 52.2316 45.2646C56.0097 41.174 58.7367 47.6792 63.5516 52.1107Z" fill="url(#paint2_linear_2_2277)"/>
<path d="M101.361 44.7817C106.361 49.4973 111.673 50.2643 107.653 54.5396C103.619 58.8148 96.3046 58.4455 91.305 53.7157C86.3054 49.0002 85.51 41.6995 89.5438 37.4385C93.5634 33.1632 96.3614 40.0519 101.361 44.7817Z" fill="url(#paint3_linear_2_2277)"/>
<path d="M131.515 41.4439C133.659 44.2988 136.316 45.151 133.887 46.9833C131.458 48.8155 127.737 47.9917 125.592 45.1368C123.447 42.2819 123.675 38.4896 126.103 36.6431C128.532 34.8251 129.356 38.589 131.515 41.4439Z" fill="url(#paint4_linear_2_2277)"/>
</g>
<path fill-rule="evenodd" clip-rule="evenodd" d="M58.2464 56.1257C57.2873 55.5534 55.8031 54.1799 55.0723 53.104C54.3188 52.0282 54.296 51.2499 54.57 51.0209C54.844 50.792 55.392 51.1583 56.3054 51.9137C57.196 52.6691 58.4519 53.8365 59.1598 54.6148C59.8677 55.3931 60.0275 55.8281 59.8677 56.1485C59.7079 56.4461 59.2283 56.675 58.2464 56.1257Z" fill="#BF595B"/>
<path fill-rule="evenodd" clip-rule="evenodd" d="M98.2464 43.1257C97.2873 42.5534 95.8031 41.1799 95.0723 40.104C94.3188 39.0282 94.296 38.2499 94.57 38.0209C94.844 37.792 95.392 38.1583 96.3054 38.9137C97.196 39.6691 98.4519 40.8365 99.1598 41.6148C99.8677 42.3931 100.028 42.8281 99.8677 43.1485C99.7079 43.4461 99.2283 43.675 98.2464 43.1257Z" fill="#BF595B"/>
<path fill-rule="evenodd" clip-rule="evenodd" d="M64.6491 25.602C63.6901 26.1743 61.7719 26.7923 60.4703 26.9068C59.1687 27.0441 58.4609 26.6779 58.4152 26.3345C58.3467 25.9911 58.9176 25.6707 60.0365 25.2586C61.1326 24.8466 62.7538 24.3201 63.7814 24.0912C64.809 23.8623 65.2429 23.9309 65.4484 24.2056C65.6311 24.5032 65.6082 25.0297 64.6491 25.602Z" fill="#BF595B"/>
<path fill-rule="evenodd" clip-rule="evenodd" d="M42.6491 20.602C41.6901 21.1743 39.7719 21.7923 38.4703 21.9068C37.1687 22.0441 36.4609 21.6779 36.4152 21.3345C36.3467 20.9911 36.9176 20.6707 38.0365 20.2586C39.1326 19.8466 40.7538 19.3201 41.7814 19.0912C42.809 18.8623 43.2429 18.9309 43.4484 19.2056C43.6311 19.5032 43.6082 20.0297 42.6491 20.602Z" fill="#BF595B"/>
<path fill-rule="evenodd" clip-rule="evenodd" d="M67.6491 39.602C66.6901 40.1743 64.7719 40.7923 63.4703 40.9068C62.1687 41.0441 61.4609 40.6779 61.4152 40.3345C61.3467 39.9911 61.9176 39.6707 63.0365 39.2586C64.1326 38.8466 65.7538 38.3201 66.7814 38.0912C67.809 37.8623 68.2429 37.9309 68.4484 38.2056C68.6311 38.5032 68.6082 39.0297 67.6491 39.602Z" fill="#BF595B"/>
<path fill-rule="evenodd" clip-rule="evenodd" d="M102.649 22.602C101.69 23.1743 99.7719 23.7923 98.4703 23.9068C97.1687 24.0441 96.4609 23.6779 96.4152 23.3345C96.3467 22.9911 96.9176 22.6707 98.0365 22.2586C99.1326 21.8466 100.754 21.3201 101.781 21.0912C102.809 20.8623 103.243 20.9309 103.448 21.2056C103.631 21.5032 103.608 22.0297 102.649 22.602Z" fill="#BF595B"/>
<path fill-rule="evenodd" clip-rule="evenodd" d="M132.649 37.602C131.69 38.1743 129.772 38.7923 128.47 38.9068C127.169 39.0441 126.461 38.6779 126.415 38.3345C126.347 37.9911 126.918 37.6707 128.036 37.2586C129.133 36.8466 130.754 36.3201 131.781 36.0912C132.809 35.8623 133.243 35.9309 133.448 36.2056C133.631 36.5032 133.608 37.0297 132.649 37.602Z" fill="#BF595B"/>
<path fill-rule="evenodd" clip-rule="evenodd" d="M28.2464 30.1257C27.2873 29.5534 25.8031 28.1799 25.0723 27.104C24.3188 26.0282 24.296 25.2499 24.57 25.0209C24.844 24.792 25.392 25.1583 26.3054 25.9137C27.196 26.6691 28.4519 27.8365 29.1598 28.6148C29.8677 29.3931 30.0275 29.8052 29.8677 30.1485C29.685 30.469 29.2055 30.6979 28.2464 30.1257Z" fill="#BF595B"/>
<path fill-rule="evenodd" clip-rule="evenodd" d="M82.2464 30.1257C81.2873 29.5534 79.8031 28.1799 79.0723 27.104C78.3188 26.0282 78.296 25.2499 78.57 25.0209C78.844 24.792 79.392 25.1583 80.3054 25.9137C81.196 26.6691 82.4519 27.8365 83.1598 28.6148C83.8677 29.3931 84.0275 29.8052 83.8677 30.1485C83.685 30.469 83.2055 30.6979 82.2464 30.1257Z" fill="#BF595B"/>
<path fill-rule="evenodd" clip-rule="evenodd" d="M126.246 25.1257C125.287 24.5534 123.803 23.1799 123.072 22.104C122.319 21.0282 122.296 20.2499 122.57 20.0209C122.844 19.792 123.392 20.1583 124.305 20.9137C125.196 21.6691 126.452 22.8365 127.16 23.6148C127.868 24.3931 128.028 24.8052 127.868 25.1485C127.685 25.469 127.205 25.6979 126.246 25.1257Z" fill="#BF595B"/>
<defs>
<filter id="filter0_d_2_2277" x="0" y="0" width="147.236" height="116.947" filterUnits="userSpaceOnUse" color-interpolation-filters="sRGB">
<feFlood flood-opacity="0" result="BackgroundImageFix"/>
<feColorMatrix in="SourceAlpha" type="matrix" values="0 0 0 0 0 0 0 0 0 0 0 0 0 0 0 0 0 0 127 0" result="hardAlpha"/>
<feOffset dx="-4" dy="-2"/>
<feGaussianBlur stdDeviation="5"/>
<feComposite in2="hardAlpha" operator="out"/>
<feColorMatrix type="matrix" values="0 0 0 0 0 0 0 0 0 0 0 0 0 0 0 0 0 0 0.25 0"/>
<feBlend mode="normal" in2="BackgroundImageFix" result="effect1_dropShadow_2_2277"/>
<feBlend mode="normal" in="SourceGraphic" in2="effect1_dropShadow_2_2277" result="shape"/>
</filter>
<linearGradient id="paint0_linear_2_2277" x1="77.615" y1="-8.65409" x2="77.615" y2="33.5672" gradientUnits="userSpaceOnUse">
<stop stop-color="white"/>
<stop offset="1" stop-color="white" stop-opacity="0"/>
</linearGradient>
<linearGradient id="paint1_linear_2_2277" x1="14.0469" y1="45.6831" x2="22.2985" y2="34.7583" gradientUnits="userSpaceOnUse">
<stop stop-color="white"/>
<stop offset="1" stop-color="white" stop-opacity="0"/>
</linearGradient>
<linearGradient id="paint2_linear_2_2277" x1="51.0582" y1="69.2274" x2="58.2963" y2="52.3472" gradientUnits="userSpaceOnUse">
<stop stop-color="white"/>
<stop offset="1" stop-color="white" stop-opacity="0"/>
</linearGradient>
<linearGradient id="paint3_linear_2_2277" x1="87.9899" y1="62.649" x2="95.8286" y2="44.9665" gradientUnits="userSpaceOnUse">
<stop stop-color="white"/>
<stop offset="1" stop-color="white" stop-opacity="0"/>
</linearGradient>
<linearGradient id="paint4_linear_2_2277" x1="123.112" y1="49.4301" x2="128.662" y2="41.0586" gradientUnits="userSpaceOnUse">
<stop stop-color="white"/>
<stop offset="1" stop-color="white" stop-opacity="0"/>
</linearGradient>
</defs>
</svg>
